<svg xmlns="http://www.w3.org/2000/svg" viewBox="0 0 67 67"><g fill="none" fill-rule="evenodd"><path fill="#000" fill-rule="nonzero" d="M33.5 0a33.5 33.5 0 1 0 0 67 33.5 33.5 0 0 0 0-67Z" opacity=".1"/><path fill="#FFE5C8" d="M52.8 27a5 5 0 0 0-6.9 1.3A5 5 0 0 0 50 36a5 5 0 0 0 2.8-9Zm-32 6.5a5 5 0 0 0-7 1.3 5 5 0 0 0 1.4 7 5 5 0 0 0 6.9-1.4 5 5 0 0 0-1.3-6.9ZM34.4 20c1.5 1 3.5.7 4.6-.9 1-1.5.6-3.5-1-4.5-1.4-1-3.5-.7-4.5.8-1 1.6-.7 3.6.9 4.6Zm-7.8 7.5c.5-.7 1-1.3 1.7-1.8l-2.7-2.2a5 5 0 0 0-1.5-6.5 5 5 0 0 0-7 1.4 5 5 0 0 0 1.4 6.8 5 5 0 0 0 4.6.5l3 2.5.5-.7Zm3.2 12-1.6 6c-1 .1-1.8.7-2.4 1.5a3.8 3.8 0 0 0 1 5.3c1.8 1.2 4.2.8 5.4-1 1.2-1.7.8-4-.8-5.2l1.6-5.8c-1.2 0-2.2-.3-3.2-.8Zm13.1-9.7-3.7.3a6 6 0 0 0-5.7-4 6 6 0 1 0 0 12 6 6 0 0 0 5.9-4.7l3.8-.3c-.4-1-.4-2.1-.3-3.3Z"/></g></svg>