<svg xmlns="http://www.w3.org/2000/svg" viewBox="0 0 67 67"><g fill="none" fill-rule="evenodd"><path fill="#7D98F5" fill-rule="nonzero" d="M33.5 0a33.5 33.5 0 1 0 0 67 33.5 33.5 0 0 0 0-67Z" opacity=".2"/><path fill="#CDE0FC" d="M28.88 17.68h7.35c.3 0 .53-.23.53-.52V16.1a2.1 2.1 0 0 0-2.1-2.11h-4.2a2.1 2.1 0 0 0-2.1 2.1v1.06c0 .29.23.52.52.52Zm7.35 23.16h-7.35a.53.53 0 0 0-.52.53v12.1c0 .3.23.53.52.53h7.35c.3 0 .53-.24.53-.53v-12.1c0-.3-.24-.53-.53-.53ZM37.3 27.5c-.72 0-1.31.6-1.31 1.32v1.05a1.31 1.31 0 1 0 2.62 0v-1.05c0-.73-.59-1.32-1.3-1.32Zm19.52 1.17-5.25-7.45a2.1 2.1 0 0 0-1.71-.9H12.1a2.1 2.1 0 0 0-2.1 2.11v13.69c0 1.16.94 2.1 2.1 2.1h37.75a2.1 2.1 0 0 0 1.71-.9l5.25-7.44c.25-.36.25-.85 0-1.21ZM22.34 32.5a1.31 1.31 0 1 1-2.62 0v-2.02l-1.38 2.14a1.3 1.3 0 0 1-2.22-.03L15 30.74v1.76a1.31 1.31 0 1 1-2.63 0v-6.46a1.31 1.31 0 0 1 2.43-.68l2.47 4.07 2.66-4.1a1.3 1.3 0 0 1 2.41.71v6.46Zm9.45-2.63a3.95 3.95 0 1 1-7.87 0v-1.05a3.95 3.95 0 1 1 7.87 0v1.05Zm9.45 0a3.95 3.95 0 1 1-7.87 0v-1.05a3.95 3.95 0 1 1 7.87 0v1.05Zm9.44 2.63a1.32 1.32 0 0 1-1.3 1.32c-.39 0-.76-.17-1.02-.47l-2.92-3.53v2.68a1.31 1.31 0 1 1-2.63 0v-6.31a1.32 1.32 0 0 1 2.32-.84l2.93 3.52v-2.68a1.31 1.31 0 1 1 2.62 0v6.31Zm-22.83-5c-.72 0-1.3.6-1.3 1.32v1.05a1.31 1.31 0 1 0 2.62 0v-1.05c0-.73-.6-1.32-1.32-1.32Z"/></g></svg>