<svg xmlns="http://www.w3.org/2000/svg" viewBox="0 0 40 40"><g fill="none" fill-rule="evenodd"><path d="M0 0h40v40H0z"/><path fill="#FFF" fill-rule="nonzero" d="M33.9 7.6A32.6 32.6 0 0 0 25.6 5l-1 2a30 30 0 0 0-9.2 0 21.6 21.6 0 0 0-1.1-2A32.5 32.5 0 0 0 6 7.6 34.8 34.8 0 0 0 .2 31a33 33 0 0 0 10.1 5c.8-1 1.5-2.1 2-3.3.1-.1 0-.2 0-.2L9.2 31v-.2a17.1 17.1 0 0 0 .7-.6 23.3 23.3 0 0 0 20.3 0l.6.6v.2c-1 .6-2 1-3.1 1.5l-.1.2a27.1 27.1 0 0 0 2.2 3.4 32.9 32.9 0 0 0 10-5.2 34.5 34.5 0 0 0-6-23.2ZM13.5 26c-2 0-3.5-1.8-3.5-4s1.6-4 3.5-4c2 0 3.5 1.8 3.5 4s-1.6 4-3.5 4Zm14 0c-2 0-3.5-1.8-3.5-4s1.6-4 3.5-4c2 0 3.5 1.8 3.5 4s-1.5 4-3.5 4Z"/></g></svg>