<svg xmlns="http://www.w3.org/2000/svg" viewBox="0 0 22 22"><g fill="none" fill-rule="evenodd"><path d="M0 0h22v22H0z"/><g fill="#FFF" fill-rule="nonzero"><path d="M4.5 22h13c.8 0 1.5-.7 1.5-1.4V5.9c0-.7-.3-1.3-.7-1.8L15 .8c-.5-.5-1.2-.8-1.9-.8H4.5C3.7 0 3 .7 3 1.5v19c0 .8.7 1.4 1.5 1.4v.1Zm12-17.5h-1.8v-2l1.9 2h-.1Zm-12-3h8.7v3c0 .7.7 1.4 1.5 1.4h2.9v14.7H4.5v-19Z"/><path d="M6.7 5.2h4c.4 0 .6-.4.6-.7 0-.5-.2-.8-.6-.8h-4c-.4 0-.8.3-.8.8 0 .3.4.6.7.6Zm8.7 2.2H6.6c-.4 0-.7.3-.7.7 0 .4.3.7.6.7h8.9c.4 0 .7-.3.7-.7 0-.4-.3-.8-.6-.8l-.1.1Zm0 2.9H6.6c-.4 0-.7.3-.7.7 0 .5.3.8.6.8h8.9c.4 0 .7-.3.7-.8 0-.4-.3-.7-.6-.7h-.1Zm0 3H6.6c-.4 0-.7.3-.7.6 0 .4.3.8.6.8h8.9c.4 0 .7-.4.7-.7 0-.4-.3-.8-.6-.8h-.1Zm0 2.9H6.6c-.4 0-.7.3-.7.7 0 .4.3.7.6.7h8.9c.4 0 .7-.3.7-.6 0-.5-.3-.8-.6-.8h-.1Z"/></g></g></svg>