<svg xmlns="http://www.w3.org/2000/svg" viewBox="0 0 341 64"><g fill="#FFF" fill-rule="evenodd"><path d="M44.9 55a4.3 4.3 0 0 1-2.7-2.7.5.5 0 0 0-.9 0 4.2 4.2 0 0 1-2.7 2.6c-.4.2-.4.8 0 1 1.5.5 2.1 1.2 2.7 2.6.2.4.7.4 1 0a4.2 4.2 0 0 1 2.6-2.6c.4-.2.4-.8 0-1ZM2.5 16.1c2.5 1 3.6 2 4.6 4.5.2.7 1.2.7 1.5 0 1-2.4 2.1-3.6 4.5-4.5a.9.9 0 0 0 0-1.6A7.1 7.1 0 0 1 8.6 10a.8.8 0 0 0-1.5 0 7.1 7.1 0 0 1-4.6 4.6c-.6.3-.6 1.3 0 1.6Zm17-9.4c1.3.5 2 1.1 2.5 2.4.1.4.6.4.8 0a3.6 3.6 0 0 1 2.4-2.4c.4-.2.4-.7 0-.8a3.8 3.8 0 0 1-2.4-2.5.4.4 0 0 0-.8 0 4 4 0 0 1-2.4 2.5c-.4.1-.4.6 0 .8ZM48.2 34a5.8 5.8 0 0 0-5.8 5.9c0 3.2 2.6 5.8 5.8 5.8A5.8 5.8 0 0 0 48 34Zm-28.2.4c-1-.8-2.3-.7-3 .3-4.8 5.8-6.2 10-4 12.4a4 4 0 0 0 3.3 1.4c6.9 0 18.7-10 20.3-11.3 6.4-5.4 14-13.6 14.3-18.7.1-1.6-.4-2.6-1-3.2-3.3-3.9-12.4 1.6-17.5 5.2-1 .7-1.2 2-.5 3 .6 1 2 1.3 3 .6 6.4-4.6 10.4-5.8 11.7-5.8-.3 2-4.4 8.3-12.8 15.5-8.6 7.3-15.4 10.4-17.5 10.3.2-.8 1-3 4-6.6.8-1 .6-2.4-.3-3.1ZM61.6 6.6C54.9-1 36.7 4 20 18.1 8.6 28 .7 40.1.1 49c-.3 3.4.5 6.3 2.3 8.5C4.5 59.8 7.8 61 12 61c7.5 0 17.6-4.1 27.8-11.7 1-.7 1.1-2.1.4-3-.7-1-2-1.3-3-.5-14.8 11-27.6 13.1-31.4 8.7-1-1.2-1.5-3-1.3-5.3.6-7.6 8-18.7 18.6-27.7 12.4-10.7 30-18.2 35.3-12 2.8 3.4 1.1 10.8-4.4 19-.7 1-.5 2.3.5 3 1 .7 2.4.5 3-.5 7-10.2 8.5-19.3 4.2-24.4ZM29.2 29c0-2-1.6-3.7-3.7-3.7-2 0-3.6 1.7-3.6 3.7s1.6 3.7 3.6 3.7 3.7-1.7 3.7-3.7Z"/><path fill-rule="nonzero" d="M94.1 44.4c4.3 0 7.6-1 10-3 2.5-1.9 3.7-4.7 3.7-8.3V20h-6.5v13.2c0 2.2-.7 3.8-2 5a7.7 7.7 0 0 1-5.2 1.6c-2.2 0-4-.5-5.2-1.6-1.3-1.1-2-2.8-2-5V20h-6.5v13c0 3.6 1.3 6.4 3.7 8.4 2.4 2 5.8 3 10 3Zm30.4-.5V26.7l16.1 17.2h6.3V20h-5.7v17.3L124.9 20h-6.1v24h5.7Zm39.7 0V20h-6.1v24h6.1Zm27.6 0 11.4-24h-6.4l-8.2 18.4-.4 1.2-.5-1.2-8.2-18.4H173l11.4 24h7.3Zm43.8 0v-4.4H218v-5.8h16.6v-4H218v-5.3h17.5v-4.5H212v24h23.6Zm16.5 0v-9.3h6.4c1.5 0 2.6.2 3.4.5.8.4 1.4 1 1.8 2.1l2.7 6.7h6.7l-3-7.3a6.1 6.1 0 0 0-4.5-4 8 8 0 0 0 4.7-1.7 5 5 0 0 0 1.7-4c0-4.6-4.3-7-12.8-7h-13.3v24h6.2Zm7-13.4h-7v-6.1h7c4.3 0 6.5 1 6.5 3 0 1-.5 1.8-1.4 2.3-1 .5-2.6.8-5 .8Zm35.7 14a33.5 33.5 0 0 0 5.4-.5 12.8 12.8 0 0 0 5-2 5 5 0 0 0 1.7-2c.4-.7.6-1.6.6-2.6 0-1.2-.3-2.2-.9-3a6.5 6.5 0 0 0-2.5-2.2c-1-.6-2.2-1-3.4-1.4-1.1-.4-2.5-.7-4.1-1-3-.6-5-1-5.8-1.3-2-.6-3-1.5-3-2.6 0-1.6 1.9-2.5 5.7-2.5 2 0 3.7.3 4.9.8 1.2.4 2.1 1.3 2.7 2.4l5.8-.6c-1.3-4.4-5.8-6.6-13.4-6.6-2.4 0-4.4.2-6.1.6a9.4 9.4 0 0 0-4.2 2.1 5 5 0 0 0-1.7 3.8c0 3.8 3.5 6.3 10.3 7.6a4576.6 4576.6 0 0 1 5 1 11 11 0 0 1 3 1.3c.5.2.8.5 1 .8l.2 1c0 1.8-2 2.7-6 2.7-4.6 0-7.4-1.3-8.3-3.7l-6.2.6c1.6 4.8 6.4 7.2 14.3 7.2Zm45.6-.6v-4.4H323v-5.8h16.6v-4H323v-5.3h17.4v-4.5H317v24h23.5Z"/></g></svg>