<?xml version="1.0" encoding="UTF-8"?>
<svg width="67px" height="67px" viewBox="0 0 67 67" version="1.1" xmlns="http://www.w3.org/2000/svg" xmlns:xlink="http://www.w3.org/1999/xlink">
    <title>check-svgrepo-com</title>
    <g id="Page-1" stroke="none" stroke-width="1" fill="none" fill-rule="evenodd">
        <g id="Homepage" transform="translate(-200.000000, -6018.000000)" fill-rule="nonzero">
            <g id="Trees" transform="translate(155.000000, 5072.000000)">
                <g id="Items" transform="translate(45.000000, 945.000000)">
                    <g id="check-svgrepo-com" transform="translate(0.000000, 1.000000)">
                        <path d="M33.5,0 C14.9983309,0 0,14.9983309 0,33.5 C0,52.0016691 14.9983309,67 33.5,67 C52.0016691,67 67,52.0016691 67,33.5 C67,14.9983309 52.0014541,0 33.5,0 Z" id="Shape" fill="#4D7A23" opacity="0.250279018"></path>
                        <g id="handshake-svgrepo-com-2" transform="translate(14.000000, 15.000000)" fill="#BDE9BD">
                            <path d="M20.7718239,0.327487859 C20.8912176,0.237169636 20.9956343,0.131556096 21.0831755,0.0144816001 L26.4866867,0.0144816001 C26.5117889,0.0144816001 26.5366802,0.013891698 26.5617824,0.0127118939 C26.9201742,-0.00428992687 27.2785661,-0.00418458721 27.6356923,0.0127118939 C27.6605835,0.013891698 27.6856857,0.0144816001 27.710577,0.0144816001 L27.7913681,0.0144816001 C29.0042893,0.0144816001 30.1507635,0.280063945 31.1795316,0.754682306 C31.2067432,0.767259861 31.2343767,0.779036835 31.2622212,0.790055363 C33.1978325,1.5529041 34.9256651,2.85256372 36.1978612,4.62955948 C38.1155423,7.30796775 38.7135652,10.6660064 37.895529,13.7901911 L30.9732295,6.96925861 C30.6772767,6.67753096 30.2781729,6.51398061 29.8621937,6.51398061 L19.8533789,6.51398061 C19.8318628,6.51398061 19.8103466,6.51442304 19.7888304,6.51528682 C19.4667207,6.52841214 19.155791,6.63956655 18.8980189,6.83463453 L14.9225906,9.84271379 C14.8105799,9.92751222 14.6924731,9.99899571 14.5702317,10.0574171 C13.7145633,10.4664299 12.6566217,10.2359678 12.0584512,9.45552735 C11.9734623,9.34464682 11.9017629,9.22790941 11.8431208,9.1071691 C11.4325839,8.26200796 11.6611193,7.22146282 12.4412069,6.63118151 L20.7718239,0.327487859 Z" id="Path"></path>
                            <path d="M10.3596443,23.6568933 L10.3317155,23.6842816 L8.2769637,25.7234467 L8.24998411,25.7504136 C7.50529269,26.4601923 6.32173473,26.451133 5.58824437,25.723236 C4.84551471,24.9862798 4.84551471,23.7913067 5.58824437,23.0541398 L7.64299616,21.0151854 C8.38572582,20.2780184 9.58991398,20.2780184 10.3326436,21.0151854 C11.0662606,21.7430824 11.0752467,22.9180409 10.3596443,23.6568933 Z" id="Path"></path>
                            <path d="M9.74630698,27.2357028 C9.03072567,27.9747659 9.03973293,29.1495137 9.77332876,29.8774108 C10.5160584,30.6145777 11.7202677,30.6145777 12.4629973,29.8774108 L14.517728,27.8384563 C15.260521,27.1012894 15.260521,25.9063163 14.517728,25.1693601 C14.4260523,25.0783466 14.327331,24.9984992 14.2233151,24.9300284 C13.4952038,24.4503116 12.5075696,24.5210998 11.8559672,25.1421825 L11.8290087,25.1691494 L9.77425691,27.2083145 L9.74630698,27.2357028 Z" id="Path"></path>
                            <path d="M5.30144651,17.6993036 C6.04417617,18.4364705 6.04417617,19.6314436 5.30144651,20.3683999 L3.24669472,22.407565 C2.50396507,23.1445212 1.2997769,23.1445212 0.557047244,22.407565 C-0.185682415,21.670398 -0.185682415,20.475425 0.557047244,19.7384687 L2.61179903,17.6993036 C3.3545076,16.9623474 4.55871686,16.9623474 5.30144651,17.6993036 Z" id="Path"></path>
                            <path d="M18.7039515,29.3233242 C19.4466812,30.0604911 19.4466812,31.2554642 18.7039515,31.9924204 L16.6491575,34.0315855 C16.4966459,34.1826426 16.3249384,34.3029404 16.1416291,34.3920578 C15.4318065,34.7375719 14.5498335,34.617274 13.9594679,34.0315855 C13.3691022,33.4456863 13.2479999,32.5705244 13.5961189,31.8660128 L13.5987978,31.8605351 C13.6883642,31.6808257 13.8086016,31.5120716 13.9594679,31.3624892 L16.0142197,29.3233242 C16.7569493,28.5863679 17.9612219,28.5863679 18.7039515,29.3233242 Z" id="Path"></path>
                            <path d="M4.97094131,3.8432832 C7.91494364,0.921751003 11.91925,-0.306298725 15.754549,0.159155086 L10.5304025,4.11229962 C8.24108233,5.84461029 7.80008527,9.09867872 9.54597459,11.3764803 C11.288088,13.649373 14.5490319,14.0901984 16.8335216,12.3615957 L20.3849548,9.67417034 L29.2131226,9.67417034 L36.6096216,16.9623474 C36.6332472,16.9914211 36.6585603,17.0196521 36.685561,17.0466191 L39.1111924,19.4694312 C40.2962692,20.6530276 40.2962692,22.5718948 39.1111924,23.7554912 C37.9936174,24.8716702 36.2212759,24.9352954 35.029238,23.9463667 L34.8261001,23.7434825 C34.7860209,23.7034534 34.7436214,23.6674273 34.6993234,23.6351933 L32.3939294,21.3328898 C31.9819581,20.9214331 31.314324,20.9214331 30.9023527,21.3328898 C30.4903814,21.7441358 30.4903814,22.4111465 30.9023527,22.8226032 L33.3281951,25.2452046 C33.4159473,25.3328472 33.5060199,25.4166976 33.5982019,25.4967558 L33.6908058,25.5890333 C34.5301473,26.427537 34.5301473,27.7868399 33.6908058,28.6253436 C32.8512534,29.4638473 31.4900394,29.4638473 30.6506979,28.6253436 L30.2944155,28.2695062 C29.8824442,27.8580495 29.2145992,27.8580495 28.8028389,28.2695062 C28.5914742,28.4803962 28.488745,28.7584929 28.4940186,29.0349042 C28.4879012,29.3123688 28.5906304,29.5917296 28.8026279,29.8034623 L29.2730304,30.2732772 C30.0495109,31.0487877 30.0495109,32.3061219 29.2730304,33.0816325 C28.4965499,33.857143 27.2376432,33.857143 26.4611627,33.0816325 L26.4588423,33.079315 L26.434162,33.0542441 L25.9909711,32.6118176 C25.8382485,32.4590751 25.6500875,32.3630053 25.452856,32.323819 C25.1185116,32.2570336 24.7582213,32.3528927 24.4991835,32.6118176 C24.0874231,33.0230636 24.0874231,33.6900743 24.4991835,34.101531 L24.9598826,34.5616546 C25.7340428,35.3535982 25.7283473,36.622309 24.9425853,37.4070895 C24.1650501,38.1834428 22.9097294,38.1994544 22.1127874,37.442905 L19.0929301,34.5764022 L20.2001689,33.4774989 C21.7693725,31.9201574 21.7693725,29.3955872 20.2001689,27.8384563 C19.3720074,27.0163857 18.2721516,26.6283144 17.1872727,26.6742424 C17.2334691,25.5976711 16.8423812,24.5063523 16.0140087,23.6842816 C15.1860582,22.8626323 14.0866453,22.474561 13.0022305,22.5200677 C13.0483215,21.4437071 12.6572546,20.3521776 11.8290087,19.5303175 C10.7751173,18.4842947 9.28141011,18.1408875 7.9386958,18.499885 C7.82550388,17.6641202 7.44521617,16.856797 6.79781157,16.2144358 C5.3498157,14.7773922 3.07163328,14.6665327 1.49544746,15.8815625 C0.521397908,11.68995 1.67989586,7.10917075 4.97094131,3.8432832 Z" id="Path"></path>
                        </g>
                    </g>
                </g>
            </g>
        </g>
    </g>
</svg>