<svg xmlns="http://www.w3.org/2000/svg" viewBox="0 0 67 67"><g fill="none"><path fill="#7D98F5" d="M33.5 0a33.5 33.5 0 1 0 0 67 33.5 33.5 0 0 0 0-67Z" opacity=".2"/><path fill="#CDE0FC" d="M22.2 33.6a8 8 0 0 0 5.7-2.3 7.5 7.5 0 0 0 2.4-5.6 7 7 0 0 0-2.4-5.4 8 8 0 0 0-5.7-2.3c-2.3 0-4.2.8-5.8 2.3a7.3 7.3 0 0 0-2.4 5.4c0 2.2.8 4 2.4 5.6a8 8 0 0 0 5.8 2.3Zm6 14.5 17.2-29.6h-5.7L22.4 48h5.8Zm-6-18.8c-1 0-1.8-.4-2.5-1-.7-.7-1-1.5-1-2.5s.3-1.8 1-2.5 1.5-1 2.5-1 1.7.3 2.4 1 1 1.5 1 2.5-.3 1.8-1 2.4c-.6.7-1.5 1-2.4 1Zm23.7 19.2a8 8 0 0 0 8.1-7.8c0-2.1-.8-4-2.4-5.5a8 8 0 0 0-5.7-2.3 8 8 0 0 0-5.8 2.3 7.3 7.3 0 0 0-2.4 5.5c0 2.2.8 4 2.4 5.5a8 8 0 0 0 5.8 2.3Zm0-4.2a3.5 3.5 0 0 1-3.6-3.6c0-1 .4-1.7 1-2.4.8-.7 1.6-1 2.6-1s1.7.3 2.4 1c.7.6 1 1.4 1 2.4s-.3 1.8-1 2.5-1.5 1-2.4 1Z"/></g></svg>