<svg xmlns="http://www.w3.org/2000/svg" viewBox="0 0 67 68"><g fill="none"><path fill="#000" d="M33.5.5a33.5 33.5 0 1 0 0 67 33.5 33.5 0 0 0 0-67Z" opacity=".1"/><path fill="#545454" d="M33.7 14.5c1 0 2 .9 2 2v2h14.8a2 2 0 0 1 0 3.8h-.7V41c0 1-.8 2-1.9 2H35.6v7.7h4.6a2 2 0 0 1 0 3.8h-13a2 2 0 0 1 0-3.8h4.6v-7.8H19.5c-1 0-2-.8-2-2V22.4H17a2 2 0 0 1 0-3.9h14.9v-2a2 2 0 0 1 2-1.9Zm5 11L35 29.1 33.8 28a2 2 0 0 0-2.7 0l-5.2 5.2a2 2 0 1 0 2.7 2.7l3.8-3.8 1.2 1.2c.8.8 2 .8 2.8 0l5.1-5.1a2 2 0 1 0-2.7-2.8Z"/></g></svg>