<svg xmlns="http://www.w3.org/2000/svg" viewBox="0 0 67 67"><g fill="none" fill-rule="evenodd"><path fill="#000" fill-rule="nonzero" d="M33.5 0a33.5 33.5 0 1 0 0 67 33.5 33.5 0 0 0 0-67Z" opacity=".1"/><path fill="#FFE5C8" d="M19 24.1c1.2.5 1.7 1 2.2 2.2 0 .3.6.3.7 0 .4-1.2 1-1.7 2.1-2.2.3-.1.3-.6 0-.7-1.1-.5-1.7-1-2.1-2.2a.4.4 0 0 0-.7 0c-.5 1.1-1 1.7-2.2 2.2-.3 0-.3.6 0 .7Zm25.2 7a4 4 0 0 1 2.6 2.7c.1.4.7.4.8 0a4 4 0 0 1 2.6-2.6c.4-.2.4-.8 0-1a4 4 0 0 1-2.6-2.6.5.5 0 0 0-.8 0 4 4 0 0 1-2.6 2.7c-.4.1-.4.7 0 .9ZM34 32.5v4c0 .9-.7 1.5-1.5 1.5-.7 0-1.4-.6-1.4-1.5v-13h3.4v.7c0 .7.5 1.2 1.2 1.2h6.8c.7 0 1.2-.5 1.2-1.2v-6.8c0-.6-.5-1.1-1.2-1.1H38v-.8c0-.7-.6-1.2-1.2-1.2h-5.7v-.6c0-1-.8-1.7-1.7-1.7-1 0-1.7.8-1.7 1.7v19.6a19.5 19.5 0 0 0-13.4 16.6c0 .6.4 1.1 1 1.1h36.2c.6 0 1-.5 1-1-1-9.7-8.9-17.3-18.5-17.6Zm-18.3 1.1c1 0 1.7-.7 1.7-1.7s-.7-1.8-1.7-1.8-1.7.8-1.7 1.8.8 1.7 1.7 1.7Zm40.6.2c-.8-1-2.2-1-3.1 0-.9.9-.9 2.3 0 3.2.9.9 2.3.9 3.1 0a2 2 0 0 0 0-3.2Z"/></g></svg>