<svg xmlns="http://www.w3.org/2000/svg" viewBox="0 0 67 68"><g fill="none" fill-rule="evenodd"><path fill="#000" fill-rule="nonzero" d="M33.5.5a33.5 33.5 0 1 0 0 67 33.5 33.5 0 0 0 0-67Z" opacity=".1"/><path fill="#545454" d="M16 37a2.1 2.1 0 1 0 0 4.2 2.1 2.1 0 0 0 0-4.2Zm30-8.4a1.6 1.6 0 1 0 0-3.2 1.6 1.6 0 0 0 0 3.2ZM38.6 18c1.3.5 1.9 1 2.4 2.3.1.4.6.4.8 0a3.7 3.7 0 0 1 2.4-2.3c.3-.2.3-.7 0-.9a3.7 3.7 0 0 1-2.4-2.3.4.4 0 0 0-.8 0 3.7 3.7 0 0 1-2.4 2.3c-.4.2-.4.7 0 .9Zm13.7 26.2-3.7-2.9c-.4-.4-.7-1-.7-1.6l.4-4.6a1.9 1.9 0 0 0-3-1.7L41.4 36a1.9 1.9 0 0 1-1.7.2l-4.3-1.7-.7-.2a1.9 1.9 0 0 0-1.9 2.4l1.3 4.5a2 2 0 0 1-.4 1.7l-3 3.6c-1 1.2-.2 3 1.4 3l4.6.3c.7 0 1.2.3 1.5.9l2.5 4c.4.5 1 .8 1.6.8.8 0 1.5-.4 1.8-1.2l1.6-4.4c.2-.6.7-1 1.3-1.1l4.6-1.2c1.5-.3 2-2.3.7-3.3ZM48.6 46c-.7.5-2 .4-2.7 0-.7-.6-.7-1.4 0-1.9.8-.4 2-.4 2.8 0 .7.6.7 1.4 0 1.9Zm-18.3-8.7c-.4-1.4-.1-2.8.8-4a4.6 4.6 0 0 1 5.3-1.4l4 1.6 3.5-2.3.3-.2c-4.1-5.1-9.6-10.4-12.7-13.3-.6-.7-1.7 0-1.4.9l1.4 4.2c-5.3-4-11.2-7.5-17.2-10.3-.9-.4-1.7.6-1.1 1.3 3.5 4.3 6.8 8.8 10 13.2l-6.5-3c-.9-.4-1.7.6-1.1 1.3 3.1 4.3 9.3 12.7 14 18.4l1.8-2-1-4.2Zm-7.3 6a1.6 1.6 0 1 0 0 3.1 1.6 1.6 0 0 0 0-3.1Z"/></g></svg>