<svg xmlns="http://www.w3.org/2000/svg" viewBox="0 0 39 41"><path fill="#FFFFFE" fill-rule="evenodd" d="M2.2 14.7c0-.2-.3-.4-.6-.3l-.9.3c-.2 0-.4.3-.3.6l2 6.7c.1.2.4.4.7.3l.8-.3c.3 0 .5-.3.4-.6l-2-6.7Zm35.3-7.1c-1.3-4.2-3.2-7.4-4.3-7l-10.1 3a2 2 0 0 0-1.4 2.6l3.6 11.4a2 2 0 0 0 2.5 1.4l10.1-3.2c1.1-.3.9-4-.4-8.2ZM20.8 23.5a5.1 5.1 0 0 0 2-5v-.1l-3.3-11c0-.3-.4-.4-.6-.3L5 11.3a2 2 0 0 0-1.3 2.5l2.4 7.6a2 2 0 0 0 2.5 1.4l4.4-1.4c.4.9 1 1.7 1.8 2.2L7.6 38.2c-.4.7-.2 1.7.5 2a1.5 1.5 0 0 0 2.1-.5l6.2-12.4V39a1.5 1.5 0 1 0 3 0V27.3l6.1 12.4a1.5 1.5 0 0 0 2.2.6c.6-.4.8-1.4.5-2l-7.4-14.8Zm-3-2.2a2 2 0 1 1 0-3.9 2 2 0 0 1 0 3.9Z"/></svg>