<?xml version="1.0" encoding="UTF-8"?>
<svg width="67px" height="67px" viewBox="0 0 67 67" version="1.1" xmlns="http://www.w3.org/2000/svg" xmlns:xlink="http://www.w3.org/1999/xlink">
    <title>check-svgrepo-com</title>
    <g id="Page-1" stroke="none" stroke-width="1" fill="none" fill-rule="evenodd">
        <g id="Homepage" transform="translate(-749.000000, -6017.000000)" fill-rule="nonzero">
            <g id="Trees" transform="translate(155.000000, 5072.000000)">
                <g id="Items" transform="translate(45.000000, 945.000000)">
                    <g id="check-svgrepo-com" transform="translate(549.000000, 0.000000)">
                        <path d="M33.5,0 C14.9983309,0 0,14.9983309 0,33.5 C0,52.0016691 14.9983309,67 33.5,67 C52.0016691,67 67,52.0016691 67,33.5 C67,14.9983309 52.0014541,0 33.5,0 Z" id="Shape" fill="#4D7A23" opacity="0.250279018"></path>
                        <polygon id="+" fill="#CDFCCD" points="40.6049383 50 40.6049383 39.204461 54 39.204461 54 27.795539 40.6049383 27.795539 40.6049383 17 27.4567901 17 27.4567901 27.795539 14 27.795539 14 39.204461 27.4567901 39.204461 27.4567901 50"></polygon>
                    </g>
                </g>
            </g>
        </g>
    </g>
</svg>