<?xml version="1.0" encoding="UTF-8"?>
<svg width="67px" height="67px" viewBox="0 0 67 67" version="1.1" xmlns="http://www.w3.org/2000/svg" xmlns:xlink="http://www.w3.org/1999/xlink">
    <title>check-svgrepo-com</title>
    <g id="Page-1" stroke="none" stroke-width="1" fill="none" fill-rule="evenodd">
        <g id="Homepage" transform="translate(-1297.000000, -6018.000000)">
            <g id="Trees" transform="translate(155.000000, 5072.000000)">
                <g id="Items" transform="translate(45.000000, 945.000000)">
                    <g id="Item" transform="translate(1097.000000, 0.000000)">
                        <g id="check-svgrepo-com" transform="translate(0.000000, 1.000000)">
                            <path d="M33.5,0 C14.9983309,0 0,14.9983309 0,33.5 C0,52.0016691 14.9983309,67 33.5,67 C52.0016691,67 67,52.0016691 67,33.5 C67,14.9983309 52.0014541,0 33.5,0 Z" id="Shape" fill="#4D7A23" fill-rule="nonzero" opacity="0.250279018"></path>
                            <g id="Group-23" transform="translate(14.357143, 13.559524)" fill="#CDFCCD">
                                <path d="M18.6475848,22.1560847 L18.6475848,23.7320096 C18.6475848,24.2742037 18.3527782,24.7892222 17.8551217,25.0376289 C17.2795405,25.3249522 16.5927937,25.2167772 16.1421373,24.7806473 L15.0772098,23.7491593 L14.0756303,24.7190404 L16.563095,27.1276488 C16.8401914,27.3961075 16.9929078,27.7529531 16.9929078,28.1326209 L16.9929078,38.6325866 C16.9929078,39.3220043 17.5701239,39.8809524 18.2820736,39.8809524 L20.4295027,39.8809524 C21.1414525,39.8809524 21.7186685,39.3220043 21.7186685,38.6325866 L21.7186685,29.711448 C21.7186685,29.3317802 21.8712487,28.9749347 22.1484813,28.706476 L24.210084,26.7101198 L23.2085045,25.7402387 L22.569439,26.3592107 C22.1189189,26.7949448 21.4333982,26.9029879 20.8576807,26.6168518 C20.3594793,26.3692366 20.0639915,25.854482 20.0639915,25.3122878 L20.0639915,22.1560847 L18.6475848,22.1560847 Z" id="Path"></path>
                                <path d="M38.2857143,16.6080853 C38.2857143,11.8872232 34.6254911,8.00576135 29.995031,7.6554337 C28.3790562,3.09967947 24.0550296,0 19.1428571,0 C14.2306847,0 9.90665812,3.09967947 8.29068325,7.65556959 C3.66022317,8.00589724 0,11.8873591 0,16.6082212 C0,19.0168936 0.95434475,21.293208 2.64448305,22.9730957 C2.576432,23.3913689 2.54220272,23.8143984 2.54220272,24.2378356 C2.54220272,28.5875786 6.0793635,32.1263228 10.4270246,32.1263228 L15.1119527,32.1263228 L15.1119527,28.4333421 L12.4561957,25.7765322 C12.1799166,25.5002653 12.0275148,25.1325436 12.0275148,24.7413126 C12.0275148,24.3500817 12.1797807,23.98236 12.4564674,23.7059572 L14.0545126,22.1070607 C14.6251363,21.5364533 15.5534016,21.5364533 16.1240254,22.1070607 L16.7617493,22.745206 L16.7617493,21.6769649 C16.7617493,20.8697709 17.4182179,20.2130084 18.2250508,20.2130084 L20.4854053,20.2130084 C21.2922382,20.2130084 21.9487068,20.869635 21.9487068,21.6769649 L21.9487068,24.3714167 L22.1618248,24.1580674 C22.4381039,23.8816646 22.8056611,23.7293305 23.1964453,23.7293305 C23.5873653,23.7291946 23.9549225,23.8815287 24.2313375,24.1580674 L25.8295186,25.7569639 C26.4001423,26.327843 26.4001423,27.2566597 25.8296544,27.827403 L23.5985034,30.0595527 L23.5985034,32.1263228 L27.8588255,32.1263228 C32.2064866,32.1263228 35.7436474,28.5875786 35.7436474,24.2378356 C35.7436474,23.8143984 35.7094181,23.3913689 35.6413671,22.9730957 C37.3313695,21.2930721 38.2857143,19.0167577 38.2857143,16.6080853 Z" id="Path"></path>
                            </g>
                        </g>
                    </g>
                </g>
            </g>
        </g>
    </g>
</svg>