<svg xmlns="http://www.w3.org/2000/svg" viewBox="0 0 67 67"><g fill="none" fill-rule="evenodd"><path fill="#7D98F5" fill-rule="nonzero" d="M33.5 0a33.5 33.5 0 1 0 0 67 33.5 33.5 0 0 0 0-67Z" opacity=".2"/><path fill="#CDE0FC" d="M29.2 32.6h9.3c.8 0 1.5-.7 1.5-1.5s-.7-1.5-1.5-1.5h-9.3c-.9 0-1.5.7-1.5 1.5s.6 1.5 1.5 1.5Zm-11.4-.2a8.7 8.7 0 0 0 8.4 7.6h14c4.2 0 8.2-3.4 8.5-7.6a3.5 3.5 0 0 0 2.8-3.4v-4c0-1.5-.9-2.8-2.2-3.3V11c0-.9-.6-1.5-1.4-1.5-.9 0-1.5.6-1.5 1.5v3.4A15.9 15.9 0 0 0 33.9 8h-1.3C25.1 8 18 14 17.5 21.6A3.5 3.5 0 0 0 15 25v4c0 1.7 1.2 3 2.8 3.4Zm13-21h4.9c.8 0 1.5.7 1.5 1.5s-.7 1.5-1.5 1.5h-4.9c-.8 0-1.4-.7-1.4-1.5s.6-1.5 1.4-1.5Zm-7.5 16.1a10 10 0 0 1 10-10 10 10 0 0 1 10 10v2.7a5 5 0 0 1-5 4.9H28.2a4.9 4.9 0 0 1-4.8-5v-2.6Zm23 13.7a11.4 11.4 0 0 1-6 1.7h-14c-2 0-4-.5-5.7-1.5a8.2 8.2 0 0 0-5.1 7.6v5.4c0 .3.2.6.5.6h35.4c.3 0 .6-.3.6-.6V49c0-3.7-2.4-6.8-5.7-7.8Zm-2 8h-4.8c-.8 0-1.4-.6-1.4-1.4 0-.9.6-1.5 1.4-1.5h4.9c.8 0 1.4.6 1.4 1.5 0 .8-.6 1.4-1.4 1.4Z"/></g></svg>