<svg xmlns="http://www.w3.org/2000/svg" viewBox="0 0 157 69"><g fill="#CDFCCD" fill-rule="evenodd"><path d="M128 4v3l-1-1V3l1-1v2Zm-3 11v-1h-1v-1a20 20 0 0 1 1 0v2Zm10 6a19 19 0 0 0-2-4l-1-2-1-7V6l-1-2V3h1l-1-1h-1l-1-1-1-1-1 2h1v5l-1 1-1 2v1l-2 1h-1a4 4 0 0 0-2 1 3 3 0 0 0-2 2v1h2v-1l2-1v1l1 1 1 1 1 1v3h1v10l-1 2v3h3V21c2-1 2-4 2-4v-7l-1-1V6h1v3a25 25 0 0 0 2 7l1 3a28 28 0 0 1 2 4h1l-1-2ZM86 47h1-1v-1 1m2 3v1-1h-1v-1h-1v1-1h-1 1v1h-1 1v-1h-2v1h-1 3v1-1h1v1-1h1m1 3v-1h-1v-1c-1 0 0 0 0 0v2h1"/><path d="M96 54h-1a2 2 0 0 0 0-1l-1-1a118 118 0 0 0-1 1v1l-1-2v-1h-3 1c0 1 0 1 0 0v1h1-1v1h-1 1l-1 1v1h-1l1 2h-1v1h-1v1h-1l-1-1v-4a2 2 0 0 1-1 0h-2v-3h1v-3h1-1v-1 1-1h1-1 1-1 1v1h1v-1 1h1v-1h-1v1-1h-1 1-1 1v-1h2a4 4 0 0 1 1 0h-1v1h1v-1h3-1a9 9 0 0 1 5 7 10 10 0 0 1 0 1v-1 1Zm-3 0v-1l1 1h-1Zm-3 3-1 1v-1l1-1v1Zm-10-1-1 1v1l-1 1a9 9 0 0 1-1-5h1v1h1l1 1Zm5-11h1-1Zm3 1v-1h1v1h-1Zm-2-1a10 10 0 0 0-9 9c0 5 4 10 9 10 6 0 10-5 10-10s-5-9-10-9ZM49 22h8v3h-3v11h-2V25h-3v-3m10 0h2v5l2-1 2-1 2 1 1 3v7h-2v-4l-1-3v-1h-1a2 2 0 0 0-2 0v8h-3V22m20 8-1-2h-4l-1 2h6Zm3 2h-9l1 2h2l3-1 2 1a5 5 0 0 1-2 2 6 6 0 0 1-3 1 6 6 0 0 1-4-2 6 6 0 0 1-2-4l2-4a5 5 0 0 1 4-2l4 2a6 6 0 0 1 2 4v1Zm1-15h4l3 13 3-13h3l4 13 3-13h3l-4 20h-4l-3-13-4 13h-4l-4-20m31 8-3 1a4 4 0 0 0-1 3l1 3 3 1 3-1 1-3a4 4 0 0 0-1-3 4 4 0 0 0-3-1Zm4-3h4v14h-4v-1l-2 2h-2l-5-2a8 8 0 0 1-2-6c0-2 0-4 2-5 1-2 3-2 4-2a6 6 0 0 1 5 2v-2Zm25 5-1-2a4 4 0 0 0-5 0l-2 2h8Zm4 3h-12l1 2 3 1a5 5 0 0 0 4-1l3 2-3 2-4 1c-2 0-4-1-5-3a7 7 0 0 1-2-5 8 8 0 0 1 2-6 7 7 0 0 1 5-2l6 2a8 8 0 0 1 2 6v1Zm2-8h3v1a4 4 0 0 1 2-1 3 3 0 0 1 3 0l-1 3-1-1-2 2v10h-4V22M56 48h4a2 2 0 0 0 1-1v-1l-1-2h-4v4Zm-4-9h4l6 1 2 2a7 7 0 0 1 1 4l-1 4-4 2-4 1v9h-4V40Zm16 6h4v2a6 6 0 0 1 1-1 4 4 0 0 1 4-1l-1 4h-2l-1 1-1 5v8h-4V45m32-7 2 1 1 2-1 2-2 1-2-1-1-2 1-2 2-1Zm-2 7h4v22a4 4 0 0 1-2 1l-2 1-4-1v-3a5 5 0 0 0 2 1l2-1V45Zm22 7-2-3a5 5 0 0 0-3-1l-3 1-2 3h10Zm4 3h-14l1 3 4 1a6 6 0 0 0 4-2l4 2-4 3-4 1a9 9 0 0 1-7-3 9 9 0 0 1-2-6 9 9 0 0 1 2-7 9 9 0 0 1 7-2 9 9 0 0 1 6 2c2 2 3 4 3 7v1Zm20-6-3 2a6 6 0 0 0-2-2h-3l-4 1-1 4 1 3a5 5 0 0 0 4 2l5-2 3 2a9 9 0 0 1-8 4c-3 0-5-1-7-3a9 9 0 0 1-2-6 9 9 0 0 1 4-8l5-1 5 1a8 8 0 0 1 3 3m5-10h4v6h3v4h-3v13h-4V49h-3v-4h3v-6M28 67v-1h-3 2a13 13 0 0 1 1-1h1v-1l-1 1h-3 1a6 6 0 0 0 1-1h1l1-1-1-1-1 1h-1l-1 1h-1l1-1a6 6 0 0 0 1-1h1l1-1-1-1-1 1-1 1-2 1-1 1h-1l1-1 1-2h-1l-1 1-1 1a3 3 0 0 0-1 1l-1 1v2l1 1 1 1h1l3-1h1a5 5 0 0 1 1-1h2m13-20h-1l-1 1v1l-1 1 1-1v-4h-1v3h-1v1-4l1-1h-2v5h-1v-5h-1v6h-1v2-1l-2-2v4l1 1v2h1a6 6 0 0 0 2 1h2l1-1 1-4v-1l1-1v-1l1-2m-3-11h-1v1l1 1-1-1v-1l-1-1v2l1 1-1-1-1-1v-1h-1v1h1v2h1v1h-1v-1a5 5 0 0 0-1-1l-1-1v1l1 1v1l1 1v1l-2-1 1 1 1 1 1 1a22 22 0 0 1 1 0 4 4 0 0 0 2 0l1-1v-1l-1-2v-1l-1-1v-1m-6 4h-1 1l1-1h-1l-1 1 1-1h1v-1h-1v1h-1l1-1h-1l-1 1v-1h-1v1a3 3 0 0 0 0 1v1h2v-1h1m-1-2v-1h1-1 1-1v-1h1-2 1-2v1h2m4-8v2-1a7 7 0 0 1-1-1v2a3 3 0 0 0 0-1l-1-1v2h1v1a72 72 0 0 1-1-1v-1h-1v1h1v2h1-1l-1-1v1h1v1h1v1h1a2 2 0 0 0 1 0v-4h-1v-1m-4-9v2-2h-1c1 0 0 0 0 0v2h1-1v-2h-1v1l1 1v1l-1-1a4 4 0 0 0 0-1l-1-1v2h1v2h1-2l1 1 1 1a20 20 0 0 1 1 0h1l1-1-1-2v-2l-1-1m-5-7v2h-1v-3h-1v1l1 1v1h-1v-3h-1v3l1 1-1-1a4 4 0 0 0-1-1v-1h-1l1 1v4-1l-1-1v1l1 1v1a22 22 0 0 1 1 1h1a5 5 0 0 0 1 0l1-1h1v-2l-1-1v-3m-11-4 1-1 1-1-1 1v1h-1v1h1l1-1V9v2l-1 1v1l1-1 1-1V9v4h1v-2l1-2V8v1l1 1V5a31 31 0 0 0-1-1h-2v1l-2 2v1l-1 1v1"/><path d="M24 7v1l-1-1h-1l1 1v1-1h-1V7h-1l1 1v1h1-1a3 3 0 0 0 0-1h-1v1h1v1h1-1v1h1l1 1h1a3 3 0 0 0 0-1h1v-1l-1-1V8h-1V7m-3-3h-1 1v1a2 2 0 0 0-1-1v1h1-1l1 1h1V5c1 0 0 0 0 0V4h-1m-2-2h1-1v1l1-1v1h-1 1V2a59 59 0 0 1 0 1h1V1a8 8 0 0 1 1-1 2 2 0 0 0-1 0h-1v1h-1v1m10 15v1-2h-1v1h1v1l-1-1v-1h-1l1 1v1a3 3 0 0 0-1-1v1h1v1h-1 1v1h1a2 2 0 0 0 1 0v-3h-1m-8-6-1-1v1l1 1h-1v-2 2-1h-1v1h1v1-1h-1v1h1a8 8 0 0 1 1 1v-1h1l-1-1v-1m2 14v1l-1 1v-1a12 12 0 0 1 0-2h-1v3a6 6 0 0 1 0-1v-3h-1v4a57 57 0 0 1-1-2v-1h-1v2l1 1v3a1 1 0 0 0 0-1l-2-1v1l1 1v1a26 26 0 0 1 1 2h2l2-1v-7m7 4v-1 3-2a10 10 0 0 1-1-1v3-1l-1-1v-2l-1 1v1h1v2l-1-1a5 5 0 0 0 0-1v-1h-1v1l1 1v3l-1-1v1l1 1v1h1v1h1a3 3 0 0 0 1 0l1-1v-5h-1v-1m-4 8v-1 1h1-1a5 5 0 0 0 0-1h1v1-1h-1v-1l1 1v-1 1h1v1-1 2h-1l-1-1"/><path d="M26 34v-1 1h1v-1 2h-1v-1m-3 0h1-1l-1-1h2-1 1-1v-1 1h1v-1 1h1v1h-2m8 12-1 1h1v-1h1l-1 1h-1v1l1-1h1v-1 1l-1 1h1v-1h1l-1 1-1 1h1l-1 1h-2l-1-1 1-1 1-1v-1m2-4v1a3 3 0 0 1 1-1v1h-1 1v-1h1v1h-1 1-1v1h-1 1v1h-2a2 2 0 0 1-1 0v-1l1-1 1-1M9 56H8l1 1H8v-1 1h1v1H8v-2 2-1H7v-1 1l-1-1v-1a2 2 0 0 1 1 0v-1 1h1v1h1m17-2v1-1h1v1-1h1-1v1l1-1v2-1 2h-2v-3m4 4h1a5 5 0 0 0-1 0v-1l1 1a2 2 0 0 1 0-1h-1 1l1 1v-1a2 2 0 0 1-1 0v-1l1 1v1h1v-1 1l1 1a2 2 0 0 1-1 0v1h-1v-1h-1v-1h-1m4 1h1-1a4 4 0 0 0 0-1l1 1v-1h-1v-1l1 1v1-2 1h1v1-1h1v2l-1 1v-1h-1v-1h-1m-6-7v1-1h1v1-2 2h1v-2 3-1h1v1a8 8 0 0 0 0 1h-2l-1-1v-2m-5-23h1v1-2 2-2h1v2-1c0-1 0-1 0 0v2l1-1v1l-1 1a2 2 0 0 1-1 0l-1-1v-2m-6 2h1-1 1l-1 1a1 1 0 0 1 1 0h-3l1-1h1m-2-15v-1 2h-1v-2 2h-1l1-1v-1h-1v2-3h-1l1-1v-1h1a3 3 0 0 1 1 0v4m9 7h1v1-2 2-2h1v2-1l1-1v3-1 2l-1 1a3 3 0 0 1-1 0l-1-1v-3m-5-3v-1 2-1a5 5 0 0 0 0-1h1v2-2 2l1-1v-1 3-1h1l-1 1v1h-2v-3m4 38-1 1 1-1h1l-1 1h1-1 1v1h-2 1-2v-1h1v-1h1m10 2-1 1 1-1h1-1v1l1-1h1l-1 1-1 1 1-1h1l-1 1h-1v1h1-1l-1 1h-1v-1h-1v-1l1-1h1v-1h1"/><path d="m27 58 1 1v-1h-1a6 6 0 0 0 0-1h1v2-3 2h1v-2 3h1v-1 3a2 2 0 0 1-1 0h-1l-1-1v-2m-13-5h1l-1 1h1-1v1-1h-1v1-1a1 1 0 0 1-1 0v-1h2m2-2v1l-1-1 1 1h-1a2 2 0 0 1 1 0v1l-1-1h-1v-2h1v1h1m-4-5h1v1h-1 1-1 1-2l1 1h-1v-1h-1l1-1h1m15 12v1h-1v-1a5 5 0 0 0 1 1h-1v-1 2-1l-1-1a26 26 0 0 0 0 1v1-2l-1 1v-2a2 2 0 0 1 1-1h1v2h1m-9-6v1-1h-1v1-1 1-2l-1 1v-1l1-1h1v2m-4-21h-1 2-1l1 1h-3a1 1 0 0 1 0-1h2m-9 7v1-1h1a5 5 0 0 1 0 1v-1 2l1-1v-1 2-1h1v-2 1h1v-2a12 12 0 0 1-1-1 2 2 0 0 0-1 0H6v2l-1 1m4-16v-1h1-1a9 9 0 0 1 0 1v1h1v-2h1l-1 1v2h1v-3h1v1a4 4 0 0 0 0 1h-1v1h1v-3l1-1v1h1v-2l-1-1a3 3 0 0 0-1-1h-1v1l-1 1-1 1v2m3 6v1l1-1 1-1a5 5 0 0 0-1 1v2l1-1v-2h1l-1 1v3-1h1v-3l1 1v2h-1 1v-2l1-1v-1 1l1 1v-3a20 20 0 0 1 0-1h-1a4 4 0 0 0-1-1h-1l-1 1-1 1v2h-1v1m-7 2h1v-1l1-1-1 1a10 10 0 0 1 0 2l1-1v-1h1-1v3h1v-3h1v1a5 5 0 0 0 0 1l-1 1h1v-2l1-1v-2 1l1 1v-4h-1l-1-1H8l-1 1-1 2v1H5v2m10-11v-1h1v-1 1a10 10 0 0 1-1 1v1h1v-1l1-1v1l-1 1v1h1v-1l1-1v-1 1a5 5 0 0 0 0 1v1h1v-4l1-1v2h1v-3l-1-1v-1a4 4 0 0 0-1 0h-2v1l-1 2-1 1v2M7 64v-2 1a7 7 0 0 1 1 1v-1H7v-1h1v1l1 1v-1l-1-1a3 3 0 0 0 1 0v1a1 1 0 0 0 0-1l-1-1v-1l1 1-1-1-1-1H6l-1 1v1l1 1 1 1v1M0 50l1-1v-1 2-2 2h1c1 0 0 0 0 0v-1l-1-1 1 1v1-3 1h1l-1-1a11 11 0 0 1-1-1H0v4m0-6v1-1h1v-1 1a7 7 0 0 1-1 1h1v-2 3h1v-3 1a3 3 0 0 0 0 1v1l1-1v-1l-1-1 1-1v2-4H1v1l-1 1v3m4-2h1v-1 1a5 5 0 0 1 0 1v-2 2l1-1v-1 2-2h1v-1l-1-1H5v2H4v1m4 3v-1 1h1v-1H8v-1l1 1v1c1 0 0 0 0 0v-2 1h1v1-2H9v-1l1 1v-1H9v-1a11 11 0 0 1-1 0 2 2 0 0 0-1 0v2l1 1v1m-3-7H4v-1 2-2 1H3v1-2 1l-1 1v-2h1v-1l-1 1v-1l1-1a3 3 0 0 1 1 0h1v3"/><path d="m6 34-1-1v2-2 2H4v-2h1l-1 1v1H3v-1h1v-2l-1 1v-1h1v-1a12 12 0 0 0 1 0h1v3m7-7v-1 1h-1v-1 1-1a6 6 0 0 0 0 1h-1v-1h1-1v-1h2v2m2-3h-1v-1 1-1 1h-1v-1h1-1v1-2h1v2m-3 5a3 3 0 0 0 1 0l-1 1h1c0-1 0-1 0 0h-1a2 2 0 0 1 1 0h-1v1h-1a1 1 0 0 1 0-1v-1h1m1 23v-1a5 5 0 0 1 0 1h1l-1-1h1v1-1h-1v-1l1 1h1-1v-1h-1v-1l1 1v-1h-3v1l1 1h1v1m3-1v-2 1l1 1v-2h-1v-1l1 1v1l1 1v-2h-1v-1l1 1 1 1v-1l-1-1v-1h-1v-1l1 1v-1l-1-1-1-1h-1a3 3 0 0 0-1 1v1l1 2v2h1M2 59h1l-1-1v-1l1 1a10 10 0 0 1 0 1v1l1-1-1-1v-1l1 1v1l1 1v-2H4v-2l1 1v1l1 1v-1l-1-1v-1H4v-2l1 1h1l-1-1-1-1a20 20 0 0 1-1-1H2l-1 1v3l1 1v2"/><path d="M6 55h1v-1l-1-1v-1l1 1a14 14 0 0 1 1 2h1l-1-1v-1H7v-1s0-1 0 0h1v1l1 1 1 1h1v-1l-1-1-1-1-1-1h1a6 6 0 0 0 1 1v1h2l-1-1v-1h-1l-1-1v-1H8v-1l2 1v-1l-1-1H8l-1-1a29 29 0 0 1-2-1 5 5 0 0 0-2 1v2l1 3 1 1v1l1 1v1m8 13h1l-1-1-1-1v1h2v1h1v-1h-1l-1-1h1l1 1h1v-1h-2v-1h-1 3l-1-1h-2l-1-1h2l-1-1h-1a2 2 0 0 0-1 0h-2v3l2 2h1l1 1"/><path d="M17 63v-1h-1a4 4 0 0 1-1 0l-1-1h1l1 1a13 13 0 0 1 2 0h1v-1h-3l-1-1h2l1 1h1l1-1h-2l-1-1h-2 4l1-1h-2l-1-1h-4 1l1-1v-1h-1l-2 1a3 3 0 0 0-1 0H9v1a5 5 0 0 0 0 1v2l1 1 2 1h3l1 1h1m1-7v-1 1a5 5 0 0 1 1 0v-1h-1 1v1h1v-1h-2v-1h1a3 3 0 0 0 0 1h1v-1h-2v-1h1-3v1l1 1v1h1m-7-23h-1 1a4 4 0 0 1 0-1v1h-1l1-1h-1v1-1h1-1v1H9v-1 1a1 1 0 0 0 0 1h1v-1h1"/><path d="M18 45Zm-9-5Zm12 17v-1h-1v-2l-1-1v-1l-1-2 1-1v-1a1 1 0 0 1-1-1v-1l-1-1h1v-1h-2l-1-1v1h-4l-1-1v-1H9v-4l1-1H9v-1h1l1-1 1-1v-1h6l-1 1h1l2 1h1v-1h1v1h2l1-1v2l1 1v2l1 1h1v1h3v1l-1 1-1 1-1 1v1l-1 1v1h1v3l-2 1v1l-1 1v2h-1l-1 1h-2Z"/></g></svg>