<svg xmlns="http://www.w3.org/2000/svg" viewBox="0 0 69 69"><defs><linearGradient id="a" x1="10.5%" x2="88.4%" y1="81.4%" y2="19.4%"><stop offset="0%" stop-color="#F8B342"/><stop offset="100%" stop-color="#F2C35E"/></linearGradient></defs><g fill="none"><path fill="url(#a)" d="M34.5 69a34.5 34.5 0 1 0 0-69 34.5 34.5 0 0 0 0 69Z"/><path fill="#FFF" d="M52.1 36.4H17c-1.2 0-2.1 1-2.1 2.1 0 1.2 1 2.2 2.1 2.2h8.8l6 15.8c.4.9 1.2 1.4 2.1 1.4 1 0 1.8-.5 2.1-1.4l6-15.8h10.2c1.2 0 2.1-1 2.1-2.2 0-1.1-1-2-2-2ZM33.8 50l-3.5-9.3h7L33.9 50ZM17 32.4h35.2a2 2 0 0 0 2.1-2c0-1.3-1-2.2-2-2.2h-5.5L51 16.6c.4-1.1-.2-2.3-1.3-2.8-1-.4-2.3.2-2.7 1.3l-5 13H25.6l-5-13a2.1 2.1 0 0 0-2.7-1.3 2.1 2.1 0 0 0-1.3 2.8L21 28.2h-4c-1.2 0-2.1 1-2.1 2.1 0 1.2 1 2.1 2.1 2.1Z"/></g></svg>