<svg xmlns="http://www.w3.org/2000/svg" viewBox="0 0 69 69"><g fill="none" fill-rule="evenodd"><path fill="#006AE3" d="M34.5 0a34.5 34.5 0 1 1 0 69 34.5 34.5 0 0 1 0-69Z"/><path fill="#FFF" fill-rule="nonzero" d="M33.1 49V20.3h3.1V49z"/><path fill="#FFF" fill-rule="nonzero" d="m49 29.9-9.7 2.6-2.1-10 2.9-.7 1 4.7s2.7-4.2-.8-8.7c-2-2.2-3-2.3-5.3-2.7-2-.3-6.7.4-8.1 5.9-.6 3.5 0 6.1 4.6 9.6l-.2 3.8s-5.1-3.6-6.4-6.1c-1-2-2.8-6 .3-11.4 1.7-2.7 5-5.4 11-5 2.9 0 10.1 3.6 9 12-.2 1.7-1 3.8-1 3.8l4-1L49 30Zm-5.5 22.5c-1.8 2.6-5.2 5.2-11 4.8-3-.2-10.1-4-8.8-12.4.3-1.6 1.1-3.7 1.1-3.7l-4 .8-.7-3.2 9.7-2.3 1.9 10.1-2.9.6-1-4.8s-2.7 4.2.6 8.7c2 2.4 3 2.5 5.3 2.9 2 .3 6.7-.2 8.3-5.7.6-3.5 0-6.1-4.4-9.7l.3-3.8s5 3.7 6.3 6.3c1 2 2.6 6-.7 11.4Z"/></g></svg>