<svg xmlns="http://www.w3.org/2000/svg" viewBox="0 0 67 68"><g fill="none"><path fill="#000" d="M33.5.5a33.5 33.5 0 1 0 0 67 33.5 33.5 0 0 0 0-67Z" opacity=".1"/><path fill="#545454" d="M50.9 44.8c.4-1.2-.3-2.4-1.4-2.8-5.1-1.6-7.3-10.7-7.8-14 0-.6-.3-1-.3-1-1-1.8-4.5-2.6-5-2.7-.6 0-.7-.6-.8-.8 1.3-.9 2.1-3 2.1-4.9 0-2.8-.3-5-4-5h-.4c-3.8 0-4.1 2.2-4.1 5 0 2 .8 4 2.1 4.9 0 .2-.1.7-.8.8-.5 0-4.5 1-5 3.1l-.2.5s-.4 3.2-1.7 6.6c-1 3-3 6.6-6 7.5a2.2 2.2 0 0 0 .5 4.3c-1.8 1-2 2.5-2 3.3 0 .3.1 1.2.8 2.2.7.8 2 1.7 4.4 1.7h1.1l4.9-.7 1.7-.3 4.1-.2h.7a36.3 36.3 0 0 1 5.8.5l5 .7h1c2.5 0 3.8-1 4.4-1.7a4 4 0 0 0 .9-2.2c0-.8-.3-2.3-2.1-3.3 1 0 1.8-.6 2.1-1.5Zm-25.4-.3c-1 .3-1.3.4-2.3.5a86.7 86.7 0 0 0-2.5.4c2.8-1.6 5.1-4.6 6.8-9l.2 2.9c0 3.3-1.7 5-2.2 5.2Zm19.4.7-1.2-.2c-3-.4-4.4-2.4-4.4-5.7 0-1 0-2 .2-3 1.7 4.5 4 7.5 6.8 9.1l-1.4-.2Z"/></g></svg>